<svg xmlns="http://www.w3.org/2000/svg" width="100%" height="auto" viewBox="0 0 1024 997" version="1.1">
	<path d="M 604.217 8.381 C 600.344 12.583, 600 13.396, 600 18.370 C 600 22.981, 600.482 24.383, 603.250 27.829 C 606.555 31.941, 610.374 34, 614.699 34 C 616.019 34, 618.386 34.666, 619.959 35.479 C 621.532 36.292, 626.573 37.395, 631.160 37.929 C 635.747 38.463, 641.525 39.564, 644 40.375 C 646.475 41.187, 650.750 42.170, 653.500 42.560 C 658.317 43.244, 658.402 43.311, 655.841 44.398 C 654.378 45.018, 652.353 46.273, 651.341 47.185 C 650.328 48.098, 648.296 49.145, 646.824 49.512 C 645.352 49.879, 643.369 51.039, 642.419 52.090 C 641.468 53.140, 639.920 54, 638.980 54 C 638.039 54, 636.189 54.850, 634.868 55.889 C 633.547 56.928, 630.899 58.519, 628.983 59.425 C 623.696 61.925, 619.664 63.998, 618 65.072 C 617.175 65.605, 615.114 66.680, 613.420 67.462 C 611.727 68.244, 609.783 69.557, 609.101 70.378 C 608.420 71.199, 606.548 72.160, 604.942 72.513 C 603.337 72.865, 601.743 73.606, 601.401 74.160 C 601.059 74.713, 598.917 76.023, 596.640 77.070 C 594.363 78.118, 591.825 79.431, 591 79.988 C 590.175 80.545, 588.375 81.471, 587 82.044 C 585.625 82.618, 582.250 84.426, 579.500 86.062 C 576.750 87.698, 572.972 89.737, 571.104 90.593 C 569.237 91.449, 567.068 92.790, 566.284 93.573 C 565.501 94.356, 563.654 95.291, 562.180 95.651 C 560.706 96.011, 558.427 97.136, 557.115 98.152 C 555.803 99.169, 554.133 100, 553.404 100 C 552.675 100, 551.273 100.844, 550.289 101.876 C 549.305 102.908, 547.375 104.086, 546 104.494 C 544.625 104.902, 542.825 105.814, 542 106.519 C 541.175 107.224, 538.925 108.524, 537 109.409 C 535.075 110.293, 531.250 112.331, 528.500 113.939 C 525.750 115.546, 522.375 117.355, 521 117.960 C 517.597 119.456, 517.210 119.663, 511.500 123.018 C 508.750 124.634, 503.286 127.549, 499.357 129.496 C 495.429 131.443, 491.661 133.703, 490.985 134.518 C 490.309 135.333, 489.346 136, 488.845 136 C 487.564 136, 482.215 138.576, 477.500 141.465 C 475.300 142.812, 471.700 144.828, 469.500 145.945 C 467.300 147.061, 464.825 148.398, 464 148.915 C 463.175 149.432, 461.825 150.115, 461 150.432 C 460.175 150.749, 457.250 152.363, 454.500 154.018 C 451.750 155.673, 447.475 157.985, 445 159.155 C 442.525 160.326, 440.275 161.605, 440 161.997 C 439.725 162.389, 437.819 163.258, 435.764 163.928 C 433.709 164.598, 431.778 165.550, 431.473 166.044 C 431.167 166.539, 429.023 167.857, 426.709 168.974 C 424.394 170.092, 420.700 172.080, 418.500 173.392 C 416.300 174.705, 410.900 177.658, 406.500 179.954 C 402.100 182.250, 397.163 184.887, 395.529 185.814 C 384.216 192.233, 369.944 200.022, 367 201.384 C 365.075 202.274, 359.900 205, 355.500 207.440 C 351.100 209.880, 343.900 213.762, 339.500 216.067 C 335.100 218.372, 329.250 221.525, 326.500 223.072 C 321.597 225.832, 316.471 228.559, 310.500 231.584 C 308.850 232.420, 306.825 233.536, 306 234.065 C 305.175 234.593, 302.700 235.902, 300.500 236.974 C 298.300 238.046, 292.900 240.963, 288.500 243.456 C 281.109 247.644, 277.432 249.606, 269.500 253.595 C 267.850 254.425, 265.825 255.542, 265 256.077 C 264.175 256.612, 261.492 258.002, 259.038 259.165 C 256.584 260.329, 253.964 261.893, 253.217 262.641 C 252.469 263.388, 251.275 264, 250.563 264 C 249.852 264, 248.197 264.818, 246.885 265.817 C 245.573 266.817, 242.925 268.254, 241 269.011 C 239.075 269.767, 237.275 270.701, 237 271.086 C 236.725 271.470, 232.900 273.658, 228.500 275.947 C 224.100 278.237, 219.825 280.535, 219 281.055 C 218.175 281.576, 216.375 282.478, 215 283.061 C 213.625 283.644, 210.360 285.331, 207.744 286.810 C 205.129 288.290, 199.279 291.450, 194.744 293.834 C 190.210 296.217, 184.250 299.394, 181.500 300.893 C 178.750 302.393, 172.900 305.555, 168.500 307.921 C 164.100 310.287, 160.050 312.568, 159.500 312.989 C 158.950 313.410, 157.375 314.089, 156 314.496 C 154.625 314.903, 152.825 315.810, 152 316.512 C 150.335 317.927, 139.733 323.791, 127.500 330.062 C 123.100 332.318, 117.250 335.436, 114.500 336.991 C 111.750 338.546, 105.900 341.686, 101.500 343.967 C 97.100 346.249, 89.900 350.122, 85.500 352.575 C 81.100 355.027, 75.475 358.039, 73 359.267 C 70.525 360.495, 67.942 362.026, 67.260 362.668 C 66.578 363.311, 64.671 364.133, 63.022 364.495 C 61.372 364.857, 59.743 365.606, 59.401 366.160 C 59.059 366.713, 56.917 368.047, 54.640 369.125 C 52.363 370.203, 48.700 372.163, 46.500 373.480 C 44.300 374.797, 38.267 378.028, 33.094 380.661 C 21.818 386.399, 18 390.706, 18 397.689 C 18 401.415, 18.593 402.713, 21.931 406.289 C 25.773 410.406, 26.006 410.500, 32.345 410.482 C 36.907 410.470, 39.374 409.980, 40.665 408.832 C 41.674 407.934, 44.075 406.488, 46 405.620 C 47.925 404.751, 50.175 403.581, 51 403.020 C 51.825 402.458, 53.625 401.522, 55 400.939 C 56.375 400.356, 59.750 398.595, 62.500 397.026 C 65.250 395.457, 69.525 393.105, 72 391.800 C 74.475 390.495, 81.450 386.767, 87.500 383.516 C 99.872 376.867, 116.973 367.805, 121.500 365.498 C 123.150 364.658, 126.750 362.660, 129.500 361.058 C 132.250 359.457, 138.100 356.260, 142.500 353.954 C 146.900 351.648, 152.750 348.519, 155.500 347 C 158.250 345.481, 164.100 342.361, 168.500 340.066 C 172.900 337.771, 178.750 334.598, 181.500 333.016 C 184.250 331.434, 187.625 329.658, 189 329.070 C 190.375 328.482, 192.175 327.557, 193 327.015 C 193.825 326.472, 196.075 325.192, 198 324.170 C 199.925 323.148, 205.550 320.140, 210.500 317.486 C 215.450 314.832, 221.525 311.590, 224 310.281 C 226.475 308.973, 230.300 306.821, 232.500 305.499 C 236.517 303.085, 236.978 302.848, 242.500 300.345 C 244.150 299.597, 247.300 297.901, 249.500 296.574 C 251.700 295.248, 257.100 292.273, 261.500 289.962 C 265.900 287.652, 271.750 284.519, 274.500 283 C 279.954 279.988, 294.621 272.277, 298.851 270.198 C 300.308 269.482, 302.175 268.476, 303 267.962 C 303.825 267.449, 306.075 266.185, 308 265.153 C 309.925 264.121, 315.325 261.176, 320 258.607 C 324.675 256.038, 330.300 253.009, 332.500 251.875 C 334.700 250.742, 338.750 248.559, 341.500 247.026 C 344.250 245.493, 350.100 242.347, 354.500 240.035 C 358.900 237.723, 366.550 233.646, 371.500 230.973 C 376.450 228.301, 384.216 224.240, 388.758 221.948 C 393.301 219.657, 397.234 217.430, 397.500 217 C 397.766 216.570, 401.699 214.370, 406.242 212.112 C 410.784 209.853, 415.175 207.554, 416 207.002 C 416.825 206.450, 418.625 205.522, 420 204.939 C 421.375 204.356, 424.637 202.669, 427.250 201.190 C 429.862 199.710, 435.712 196.525, 440.250 194.111 C 454.004 186.793, 455.443 186.009, 457 184.985 C 457.825 184.443, 459.625 183.518, 461 182.930 C 462.375 182.342, 465.750 180.549, 468.500 178.946 C 471.250 177.343, 475.300 175.130, 477.500 174.028 C 479.700 172.927, 482.175 171.618, 483 171.119 C 483.825 170.621, 485.625 169.690, 487 169.049 C 488.375 168.409, 491.750 166.588, 494.500 165.003 C 497.250 163.418, 500.625 161.644, 502 161.061 C 503.375 160.478, 505.175 159.545, 506 158.988 C 506.825 158.431, 509.300 157.086, 511.500 156 C 513.700 154.914, 516.175 153.569, 517 153.012 C 517.825 152.455, 519.625 151.518, 521 150.930 C 522.375 150.342, 525.750 148.553, 528.500 146.955 C 531.250 145.357, 534.625 143.589, 536 143.025 C 537.375 142.462, 539.175 141.545, 540 140.988 C 540.825 140.431, 543.300 139.057, 545.500 137.936 C 547.700 136.814, 551.750 134.597, 554.500 133.009 C 557.250 131.420, 560.625 129.644, 562 129.061 C 563.375 128.478, 565.175 127.559, 566 127.018 C 566.825 126.477, 571.100 124.191, 575.500 121.936 C 579.900 119.681, 585.750 116.577, 588.500 115.038 C 591.250 113.498, 597.100 110.359, 601.500 108.062 C 605.900 105.765, 613.550 101.695, 618.500 99.018 C 626.512 94.684, 635.060 90.212, 648.532 83.303 C 650.888 82.095, 653.109 80.633, 653.467 80.053 C 653.825 79.474, 654.931 79, 655.924 79 C 656.918 79, 658.803 78.162, 660.115 77.138 C 661.427 76.113, 663.625 74.932, 665 74.513 C 666.375 74.095, 668.314 72.898, 669.310 71.854 C 670.305 70.810, 671.544 70.218, 672.063 70.539 C 673.215 71.251, 672.206 75.941, 670.459 78 C 669.759 78.825, 668.687 81.300, 668.077 83.500 C 667.467 85.700, 666.300 88.374, 665.484 89.441 C 664.668 90.509, 663.986 92.309, 663.969 93.441 C 663.952 94.574, 662.831 97.750, 661.478 100.500 C 660.125 103.250, 659.014 106.052, 659.009 106.726 C 659.004 107.400, 658.102 109.425, 657.004 111.226 C 653.874 116.359, 654.302 122.846, 658.084 127.605 C 662.234 132.828, 662.543 132.967, 670.003 132.985 C 679.068 133.006, 679.627 132.351, 690.027 109.500 C 691.029 107.300, 692.159 104.375, 692.538 103 C 692.918 101.625, 694.077 99.097, 695.114 97.382 C 696.151 95.667, 697 93.553, 697 92.685 C 697 91.816, 698.125 88.990, 699.500 86.404 C 700.875 83.818, 702 81.035, 702 80.219 C 702 79.403, 702.849 77.333, 703.886 75.618 C 704.923 73.903, 706.082 71.375, 706.462 70 C 707.141 67.539, 708.289 64.894, 713.411 53.986 C 714.835 50.953, 716 47.790, 716 46.958 C 716 46.126, 716.701 44.445, 717.557 43.223 C 719.561 40.360, 719.786 31.831, 717.917 29.526 C 713.645 24.255, 710.913 22, 708.799 22 C 707.505 22, 705.452 21.304, 704.238 20.454 C 703.024 19.604, 697.861 18.423, 692.765 17.829 C 687.669 17.236, 682.279 16.129, 680.786 15.368 C 679.293 14.608, 673.506 13.517, 667.927 12.945 C 662.347 12.372, 656.819 11.302, 655.641 10.566 C 654.464 9.831, 649.900 8.926, 645.500 8.556 C 640.679 8.151, 636.507 7.218, 635 6.209 C 633.102 4.937, 629.605 4.446, 620.467 4.170 L 608.433 3.806 604.217 8.381 M 598.108 290.961 C 593.098 291.772, 588.448 296.388, 587.492 301.500 C 587.183 303.150, 587.059 418.823, 587.215 558.552 L 587.500 812.604 591.223 816.552 L 594.946 820.500 612.223 820.826 C 621.725 821.005, 629.831 821.470, 630.235 821.861 C 630.639 822.251, 631.407 824.871, 631.940 827.683 C 633.135 833.986, 637.093 839.889, 642.945 844.098 C 646.666 846.774, 648.539 847.374, 654.445 847.781 C 662.154 848.312, 669.529 851.343, 674.168 855.887 C 677.392 859.045, 680.999 868.144, 680.999 873.123 C 681 876.850, 677.789 885.340, 675.373 888 C 667.054 897.159, 665.141 905.378, 668.610 917.057 C 670.068 921.968, 671.686 923.938, 685.860 938.055 C 694.462 946.624, 703.143 954.391, 705.151 955.317 C 707.586 956.439, 711.406 957, 716.618 957 L 724.433 957 734.365 950.303 C 743.259 944.306, 744.906 943.562, 750.123 943.185 C 755.014 942.831, 756.794 943.200, 761.224 945.489 C 767.019 948.483, 771.620 952.883, 773.161 956.902 C 773.708 958.331, 775.047 963.748, 776.135 968.940 C 777.223 974.133, 778.426 978.930, 778.807 979.602 C 780.784 983.083, 786.609 988.275, 791.082 990.542 L 796.131 993.100 819.816 992.800 L 843.500 992.500 848.442 989.464 C 851.160 987.794, 854.965 984.194, 856.897 981.464 C 859.869 977.263, 860.466 975.500, 860.778 970 C 861.628 955.014, 871.137 944.484, 884.884 943.304 C 889.608 942.899, 891.276 943.241, 895.385 945.455 C 898.072 946.903, 902.122 949.583, 904.385 951.411 C 910.549 956.391, 912.327 957.044, 919.910 957.115 C 928.113 957.192, 929.838 956.728, 935.344 952.966 C 940.041 949.756, 963.361 926.244, 966.852 921.198 C 971.652 914.260, 971.451 901.021, 966.439 894.086 C 964.823 891.850, 962.495 888.553, 961.267 886.760 C 960.039 884.967, 958.497 882.871, 957.840 882.102 C 957.183 881.334, 956.613 877.644, 956.573 873.902 C 956.414 859.085, 966.562 848.882, 982.551 847.781 C 988.552 847.368, 990.335 846.780, 994.516 843.840 C 997.217 841.939, 1000.794 838.160, 1002.464 835.442 L 1005.500 830.500 1005.801 806.711 C 1006.093 783.593, 1006.037 782.791, 1003.801 778.274 C 1000.996 772.607, 994.713 766.358, 990.566 765.112 C 988.880 764.605, 983.089 763.210, 977.699 762.011 C 969.780 760.251, 967.301 759.249, 964.791 756.795 C 956.845 749.028, 953.908 735.151, 958.766 728.329 C 959.995 726.603, 961 724.768, 961 724.251 C 961 723.733, 961.915 722.482, 963.032 721.471 C 971.996 713.359, 972.951 698.186, 965.153 687.786 C 960.697 681.843, 938.997 660.261, 934.712 657.510 C 926.019 651.929, 912.441 652.951, 904.202 659.807 C 898.426 664.613, 890.945 668.002, 886.123 667.995 C 881.555 667.990, 872.315 664.227, 868.887 660.977 C 864.647 656.958, 861.852 650.183, 861.057 642 C 860.450 635.747, 859.766 633.704, 856.947 629.715 C 855.087 627.083, 851.453 623.574, 848.872 621.918 L 844.178 618.906 817.839 619.203 L 791.500 619.500 787.676 622.205 C 784.602 624.381, 778 631.424, 778 632.529 C 778 634.503, 773.587 653.916, 772.793 655.434 C 771.146 658.582, 766.027 662.911, 760.783 665.590 C 752.243 669.953, 745.021 668.565, 734 660.442 C 730.975 658.212, 727 655.780, 725.166 655.038 C 723.332 654.295, 721.420 652.604, 720.916 651.279 C 720.374 649.854, 720 577.546, 720 474.239 L 720 299.608 717.435 295.906 C 715.517 293.138, 713.766 291.927, 710.492 291.102 C 705.584 289.866, 605.646 289.741, 598.108 290.961 M 615.667 319.667 C 615.300 320.033, 615 426.244, 615 555.691 L 615 791.050 617.750 792.116 C 620.369 793.132, 629.641 792.693, 630.837 791.496 C 631.149 791.185, 631.696 788.133, 632.053 784.715 C 632.763 777.921, 635.433 773.031, 640.978 768.365 C 643.365 766.356, 646.938 765.059, 654.847 763.328 C 660.706 762.046, 666.723 760.499, 668.218 759.890 C 670.918 758.791, 678 751.048, 678 749.196 C 678 748.664, 678.672 746.940, 679.494 745.364 C 682.355 739.877, 680.305 728.816, 675.380 723.166 C 668.546 715.328, 666.327 708.813, 667.295 699.433 C 668.062 691.995, 669.620 689.595, 681.446 677.625 L 692 666.942 692 494.553 C 692 399.739, 691.727 321.452, 691.393 320.582 C 690.855 319.179, 686.583 319, 653.560 319 C 633.085 319, 616.033 319.300, 615.667 319.667 M 409.500 385.652 C 403.606 387.008, 401.682 388.486, 399.383 393.424 L 397.020 398.500 397.010 603.264 C 397.004 715.884, 397.382 808.809, 397.849 809.764 C 400.992 816.194, 402.141 817.693, 405.137 819.266 C 408.255 820.903, 412.660 821.012, 465.646 820.766 C 521.193 820.507, 522.853 820.444, 525.002 818.500 C 526.218 817.400, 528.065 814.830, 529.106 812.790 C 530.946 809.185, 531 803.259, 531 603.673 L 531 398.267 528.892 393.193 C 527.317 389.405, 525.987 387.791, 523.642 386.823 C 521.217 385.822, 508.056 385.488, 466 385.359 C 436.025 385.267, 410.600 385.399, 409.500 385.652 M 428.250 415.656 C 427.256 416.062, 427 454.568, 427 603.476 C 427 773.356, 427.147 790.843, 428.582 791.393 C 430.951 792.302, 498.302 792.095, 499.753 791.174 C 500.750 790.541, 500.954 752.231, 500.753 602.939 L 500.500 415.500 465 415.322 C 445.475 415.225, 428.938 415.375, 428.250 415.656 M 218.329 480.863 C 212.546 483.136, 209.217 486.303, 208.518 490.195 C 208.191 492.013, 208.054 565.380, 208.212 653.233 L 208.500 812.967 212.266 816.733 L 216.032 820.500 272.266 820.803 C 308.749 820.999, 329.729 820.744, 332 820.077 C 334.491 819.346, 336.293 817.786, 338.250 814.670 L 341 810.290 341 650.377 L 341 490.464 338.462 486.730 C 333.445 479.347, 334.898 479.517, 275.500 479.361 C 228.529 479.238, 222.025 479.409, 218.329 480.863 M 237.161 510.547 C 236.298 512.441, 236 548.591, 236 651.476 C 236 775.944, 236.158 790.015, 237.571 791.429 C 238.940 792.797, 243.617 792.998, 273.821 792.986 C 292.895 792.979, 309.512 792.701, 310.750 792.370 L 313 791.767 313 651.083 C 313 542.996, 312.722 510.122, 311.800 509.200 C 310.911 508.311, 301.236 508, 274.461 508 L 238.321 508 237.161 510.547 M 30.500 574.929 C 26.094 575.992, 23.533 577.578, 20.608 581.054 L 18 584.153 18 697.773 L 18 811.392 20.628 815.185 C 22.387 817.722, 24.454 819.309, 26.878 819.983 C 31.615 821.299, 137.279 821.354, 141.850 820.043 C 143.685 819.517, 146.382 817.891, 147.843 816.430 L 150.500 813.773 150.765 699.637 C 150.944 622.613, 150.693 584.687, 149.994 583 C 148.608 579.653, 142.947 575.915, 137.739 574.907 C 132.538 573.901, 34.678 573.920, 30.500 574.929 M 48.745 603.642 C 47.085 604.121, 47.004 609.239, 47.245 697.824 L 47.500 791.500 84.500 791.500 L 121.500 791.500 121.738 699 C 121.885 641.807, 121.612 605.927, 121.025 605 C 120.213 603.720, 114.983 603.473, 85.287 603.318 C 66.154 603.217, 49.710 603.363, 48.745 603.642 M 805.526 649.250 C 802.732 657.751, 802 660.271, 802 661.394 C 802 664, 795.987 673.920, 791.368 678.934 C 785.903 684.868, 774.893 692.425, 770.219 693.452 C 768.438 693.843, 765.704 694.800, 764.145 695.578 C 762.391 696.453, 757.914 697.025, 752.405 697.078 C 740.144 697.196, 727.631 693.015, 719.292 686.014 C 718.628 685.456, 717.503 685, 716.792 685 C 714.726 685, 697.712 702.868, 698.447 704.266 C 698.804 704.945, 700.196 707.300, 701.541 709.500 C 704.769 714.781, 707 719.610, 707 721.314 C 707 722.072, 707.733 724.162, 708.629 725.959 C 710.789 730.287, 710.847 746.447, 708.718 750.610 C 707.906 752.200, 706.906 755.075, 706.496 757 C 706.086 758.925, 704.907 761.694, 703.876 763.154 C 702.844 764.614, 702 766.287, 702 766.872 C 702 768.609, 686.494 783.711, 683.894 784.505 C 682.578 784.907, 680.757 785.888, 679.849 786.684 C 678.940 787.480, 675.340 788.778, 671.849 789.569 C 660.259 792.193, 661 791.085, 661 805.781 L 661 818.605 665.750 819.713 C 673.391 821.496, 680.343 824.157, 682.564 826.149 C 683.700 827.167, 685.120 828, 685.719 828 C 687.580 828, 699.605 840.284, 701.871 844.500 C 703.053 846.700, 704.429 849.175, 704.927 850 C 705.425 850.825, 706.771 854.457, 707.917 858.070 C 710.715 866.896, 710.751 879.433, 708 887.260 C 706.900 890.389, 706 893.567, 706 894.320 C 706 895.074, 705.100 896.505, 704 897.500 C 702.900 898.495, 702 899.883, 702 900.584 C 702 901.284, 701.408 902.452, 700.685 903.179 C 696.722 907.162, 696.958 907.837, 705.217 916.096 C 709.564 920.443, 713.496 924, 713.954 924 C 714.411 924, 715.041 924.666, 715.354 925.479 C 715.802 926.648, 717.178 926.124, 721.912 922.979 C 725.207 920.791, 728.393 919, 728.991 919 C 729.590 919, 731.974 918.006, 734.290 916.790 C 737.995 914.846, 739.999 914.585, 751 914.617 C 762.666 914.652, 763.999 914.861, 770.977 917.758 C 775.089 919.465, 778.614 921.342, 778.810 921.931 C 779.006 922.519, 779.766 923, 780.498 923 C 782.372 923, 796.662 937.359, 797.539 940.123 C 797.938 941.379, 798.879 943.022, 799.630 943.773 C 800.382 944.525, 801.245 946.346, 801.548 947.820 C 801.852 949.294, 802.915 953.425, 803.911 957 L 805.723 963.500 818.796 963.779 L 831.869 964.057 832.561 959.279 C 832.941 956.650, 833.599 954.050, 834.023 953.500 C 834.447 952.950, 835.364 950.475, 836.061 948 C 836.758 945.525, 837.863 943.048, 838.518 942.497 C 839.172 941.945, 840.641 939.695, 841.782 937.497 C 845.627 930.086, 856.424 921.447, 866.500 917.718 C 878.232 913.376, 895.399 913.066, 902.854 917.062 C 904.843 918.128, 907.152 919.013, 907.985 919.028 C 908.818 919.044, 912.149 920.817, 915.386 922.968 L 921.273 926.879 930.386 917.689 L 939.500 908.500 937.923 905.377 C 937.055 903.660, 935.368 901.012, 934.173 899.492 C 932.978 897.973, 932 895.832, 932 894.733 C 932 893.635, 930.999 891.117, 929.776 889.137 C 927.782 885.912, 927.554 884.240, 927.578 873.019 C 927.598 863.567, 928.005 859.642, 929.240 857 C 930.139 855.075, 931.588 851.925, 932.458 850 C 933.329 848.075, 935.101 844.770, 936.395 842.656 C 939.004 838.395, 949.559 828, 951.277 828 C 951.879 828, 953.300 827.166, 954.436 826.147 C 956.509 824.286, 971.952 818.987, 975.279 818.996 C 976.908 819, 977.035 817.897, 976.779 805.906 L 976.500 792.811 972.500 791.436 C 970.300 790.680, 966.314 789.592, 963.642 789.018 C 960.969 788.444, 957.646 787.080, 956.257 785.987 C 954.867 784.894, 953.266 784, 952.699 784 C 950.743 784, 936 769.386, 936 767.446 C 936 766.769, 935.367 765.971, 934.594 765.675 C 933.821 765.378, 932.877 763.642, 932.496 761.818 C 932.115 759.993, 931.204 757.551, 930.472 756.392 C 926.510 750.122, 926.283 729.767, 930.078 721.123 C 931.135 718.715, 932 716.162, 932 715.450 C 932 714.737, 933.125 712.816, 934.500 711.182 C 935.875 709.548, 937 707.862, 937 707.434 C 937 707.007, 937.683 705.903, 938.517 704.981 C 939.901 703.451, 939.204 702.462, 930.576 693.707 L 921.118 684.109 917.515 686.555 C 915.533 687.900, 913.536 689, 913.078 689 C 912.620 689, 911.686 689.673, 911.004 690.495 C 910.321 691.318, 907.904 692.499, 905.631 693.121 C 903.359 693.743, 900.082 694.870, 898.349 695.626 C 896.464 696.448, 891.671 697, 886.424 697 C 876.805 697, 867.746 694.512, 858.447 689.315 C 853.354 686.469, 841 674.738, 841 672.747 C 841 672.132, 840.167 670.700, 839.149 669.564 C 838.131 668.429, 836.720 665.351, 836.012 662.724 C 835.305 660.098, 834.363 657.725, 833.921 657.451 C 833.478 657.177, 832.813 654.939, 832.444 652.477 L 831.773 648 818.855 648 C 809.407 648, 805.827 648.336, 805.526 649.250 M 809 712.030 C 806.525 712.514, 801.563 713.325, 797.973 713.833 C 794.384 714.341, 789.665 715.711, 787.488 716.878 C 785.311 718.045, 783.006 719, 782.366 719 C 780.214 719, 766.340 726.751, 762.768 729.949 C 761.816 730.802, 759.116 733.062, 756.768 734.972 C 754.421 736.882, 750.700 740.606, 748.500 743.247 C 746.300 745.889, 743.712 748.814, 742.750 749.747 C 741.788 750.681, 741 751.950, 741 752.567 C 741 753.185, 740.140 754.468, 739.090 755.419 C 738.039 756.369, 736.887 758.316, 736.528 759.745 C 736.169 761.173, 735.004 763.451, 733.938 764.806 C 732.872 766.161, 732 768.003, 732 768.900 C 732 769.796, 731.150 772.116, 730.111 774.054 C 727.501 778.925, 723.505 802.837, 724.275 808.977 C 725.377 817.752, 728.297 833.595, 728.981 834.500 C 729.396 835.050, 730.495 837.828, 731.422 840.673 C 732.350 843.518, 733.760 846.386, 734.555 847.045 C 735.350 847.705, 736 849.055, 736 850.046 C 736 851.036, 737.125 853.184, 738.500 854.818 C 739.875 856.452, 741 858.158, 741 858.609 C 741 859.565, 742.012 860.693, 752.784 871.750 C 757.204 876.288, 761.289 880, 761.861 880 C 762.433 880, 763.286 880.689, 763.758 881.532 C 764.229 882.374, 766.164 883.906, 768.058 884.937 C 776.424 889.488, 785.808 894, 786.910 894 C 787.570 894, 790.223 895.001, 792.805 896.224 C 797.193 898.301, 798.876 898.447, 818.506 898.451 C 837.923 898.456, 839.818 898.297, 843.552 896.350 C 845.774 895.192, 849.482 893.925, 851.791 893.535 C 854.100 893.145, 856.266 892.378, 856.605 891.830 C 856.943 891.283, 859.083 889.965, 861.360 888.903 C 865.779 886.841, 871.102 883.703, 875.473 880.583 C 881.690 876.145, 895.192 861.399, 898.110 855.861 C 903.415 845.789, 907 838.053, 907 836.676 C 907 835.788, 908.008 833.135, 909.240 830.781 C 911.342 826.764, 911.481 825.268, 911.486 806.500 C 911.489 793.712, 911.064 785.238, 910.307 783 C 906.457 771.623, 903.975 765.995, 898 755.091 C 895.939 751.331, 894.797 750.012, 884.500 739.498 C 873.129 727.887, 866.197 723.310, 851 717.374 C 839.688 712.956, 818.233 710.227, 809 712.030 M 804.500 742.431 C 800.650 743.079, 796.375 744.325, 795 745.200 C 793.625 746.076, 791.445 747.107, 790.156 747.493 C 786.013 748.733, 778.673 754.196, 771.998 761.008 C 751.447 781.982, 748.228 815.715, 764.377 840.878 C 768.161 846.775, 780.289 858.780, 784.278 860.578 C 786.050 861.376, 788.175 862.451, 789 862.965 C 789.825 863.479, 793.425 865.160, 797 866.700 C 803.165 869.355, 804.278 869.500, 818.576 869.500 C 834.847 869.500, 834.557 869.568, 849.985 862.140 C 857.228 858.653, 871.549 844.296, 875.140 836.922 C 882.523 821.763, 882.500 821.860, 882.500 805.496 C 882.500 789.676, 882.598 790.172, 877.091 778 C 874.093 771.372, 868.455 763.370, 864.068 759.515 C 862.181 757.857, 859.931 755.770, 859.068 754.877 C 858.206 753.984, 856.150 752.516, 854.500 751.614 C 852.850 750.712, 850.825 749.558, 850 749.048 C 838.576 741.995, 821.681 739.537, 804.500 742.431 M 90 996 C 87.818 996.459, 91.397 996.742, 99.500 996.750 C 107.407 996.758, 111.325 996.464, 109.500 996 C 105.704 995.034, 94.589 995.034, 90 996" stroke="none" fill="black" fill-rule="evenodd"/>
</svg>