<svg xmlns="http://www.w3.org/2000/svg" width="100%" height="auto" viewBox="0 0 992 883" version="1.1">
	<path d="M 265.500 117.998 C 244.050 127.240, 224.700 135.572, 222.500 136.512 C 159.884 163.278, 118.024 181.429, 116.255 182.579 C 110.916 186.052, 111 184.603, 111.004 273.372 C 111.009 369.042, 111.662 380.704, 118.606 409 C 124.140 431.552, 137.646 462.089, 150.801 481.790 C 163.266 500.459, 181.315 520.458, 199.250 535.474 L 206 541.125 206 640.102 C 206 738.803, 206.006 739.091, 208.110 743.290 C 210.855 748.767, 214.538 752.664, 219.500 755.342 L 223.500 757.500 389.250 757.762 L 555 758.023 555 768.366 L 555 778.709 544.854 779.268 C 537.200 779.690, 534.069 780.286, 532.104 781.693 C 528.977 783.934, 509 822.808, 509 826.652 C 509 830.878, 511.921 835.735, 515.478 837.423 C 518.464 838.839, 535.655 839, 684.253 839 L 849.704 839 853.102 836.720 C 855.404 835.176, 856.945 833.042, 857.880 830.107 L 859.261 825.774 848.886 804.818 C 836.427 779.650, 836.714 779.923, 821.876 779.208 L 812 778.733 812 706.366 L 812 634 824.250 633.994 C 837.932 633.988, 842.932 632.987, 847.859 629.268 C 853.285 625.171, 854.955 620.173, 854.963 608 C 854.968 601.589, 854.484 596.526, 853.721 595 C 852.222 592.001, 851.060 591.221, 750.831 526 C 715.959 503.308, 700.529 493.196, 698.250 491.541 L 696 489.907 696 320.896 C 696 194.299, 695.704 150.709, 694.819 147.197 C 693.305 141.181, 685.395 132.992, 679.384 131.216 C 676.234 130.285, 640.506 130, 527.083 130 L 378.898 130 369.199 125.932 C 363.865 123.695, 358.069 121.214, 356.320 120.419 C 354.571 119.624, 350.071 117.696, 346.320 116.136 C 337.171 112.331, 318.260 104.230, 314.349 102.441 C 312.616 101.649, 309.691 101.043, 307.849 101.096 C 305.902 101.152, 288.168 108.230, 265.500 117.998 M 439 154.863 C 439 155.338, 450.278 160.551, 464.062 166.447 C 497.676 180.825, 499.255 181.579, 502.065 184.568 L 504.500 187.158 505 221.829 L 505.500 256.500 569.332 257 L 633.165 257.500 636.061 260.742 C 637.655 262.526, 639.215 265.009, 639.529 266.260 C 640.392 269.696, 637.855 276.045, 634.677 278.404 C 631.891 280.473, 631.040 280.503, 568.427 280.772 L 505 281.043 505 296.415 C 505 309.639, 505.225 311.873, 506.614 312.405 C 507.502 312.746, 535.953 313.007, 569.838 312.984 C 639.068 312.939, 634.416 312.430, 638.412 320.481 C 640.149 323.980, 640.194 324.704, 638.912 328.384 C 638.024 330.930, 636.238 333.282, 634.102 334.717 L 630.704 337 567.903 337 L 505.103 337 504.801 351.750 C 504.636 359.863, 504.661 367.063, 504.857 367.750 C 505.138 368.733, 518.723 369, 568.472 369 L 631.730 369 634.486 371.168 C 640.625 375.997, 641.064 384.772, 635.431 390.065 L 632.840 392.500 567.194 393 L 501.548 393.500 500.832 396 C 499.585 400.359, 493.994 423.468, 493.997 424.250 C 493.999 424.663, 524.758 425, 562.352 425 L 630.704 425 634.102 427.287 C 640.642 431.687, 641.252 440.596, 635.391 446.103 L 632.840 448.500 558.359 449 L 483.879 449.500 479.107 458.500 C 476.483 463.450, 472.685 470.276, 470.668 473.668 C 468.650 477.061, 467 480.088, 467 480.396 C 467 480.703, 504.012 481.078, 549.250 481.227 C 641.513 481.533, 634.875 480.960, 638.467 488.927 C 639.915 492.137, 640.021 493.407, 639.080 496.258 C 637.764 500.245, 634.699 503.412, 630.685 504.933 C 628.767 505.660, 599.182 506, 537.839 506 L 447.808 506 438.154 515.853 C 432.844 521.272, 425.611 528.247, 422.080 531.353 L 415.659 537 507.676 537 L 599.693 537 617.597 525.453 C 656.689 500.240, 670.239 491.233, 671.088 489.897 C 672.066 488.358, 672.356 158.091, 671.381 155.551 C 670.848 154.162, 658.694 154, 554.893 154 C 490.513 154, 439 154.384, 439 154.863 M 217 396 L 217 470 219.750 470.006 C 302.910 470.178, 398.392 469.876, 399.100 469.438 C 400.106 468.816, 400.346 326.066, 399.346 323.459 C 398.861 322.195, 386.625 322, 307.893 322 L 217 322 217 396 M 301.500 332.701 C 289.330 335.553, 279.153 343.011, 274.068 352.804 C 269.985 360.668, 268.921 372.358, 271.431 381.786 C 272.810 386.968, 277.695 395.672, 280.555 398.046 C 281.724 399.016, 282 402.940, 282 418.585 C 282 441.267, 283.073 445.714, 290.240 452.741 C 303.636 465.875, 326.277 460.639, 332.512 442.965 C 333.633 439.790, 334 433.971, 334 419.409 L 334 400.070 336.794 396.785 C 340.898 391.960, 342.486 389.128, 344.492 383.053 C 347.927 372.655, 346.300 359.233, 340.485 350 C 337.725 345.617, 330.297 338.722, 325.864 336.429 C 318.847 332.799, 308.100 331.154, 301.500 332.701 M 230 645.393 C 230 724.162, 230.156 732.846, 231.582 733.393 C 233.670 734.194, 546.398 734.160, 551.250 733.358 L 555 732.738 555 703.369 L 555 674 413.450 674 C 260.082 674, 268.419 674.292, 264.561 668.783 C 263.635 667.461, 263 664.451, 263 661.381 C 263 656.710, 263.344 655.905, 266.535 653.104 L 270.070 650 412.535 650 L 555 650 555 642 L 555 634 542.866 634 C 536.163 634, 528.890 633.450, 526.616 632.770 C 521.896 631.360, 514.393 624.415, 513.426 620.561 L 512.783 618 392.859 618 C 262.839 618, 268.158 618.223, 264.488 612.622 C 263.571 611.222, 262.789 608.003, 262.751 605.467 C 262.693 601.629, 263.183 600.356, 265.679 597.860 C 267.327 596.211, 270.436 594.452, 272.588 593.951 C 274.824 593.430, 327.476 593.034, 395.500 593.026 L 514.500 593.013 538 577.509 L 561.500 562.006 469.228 562.003 L 376.956 562 369.228 565.854 C 349.692 575.597, 320.922 584.375, 308.500 584.381 C 293.778 584.389, 262.025 574.135, 239.369 562.058 C 235.182 559.826, 231.362 558, 230.878 558 C 230.381 558, 230 595.858, 230 645.393 M 580 706.500 L 580 779 586.500 779.083 C 590.075 779.129, 594.688 779.204, 596.750 779.250 L 600.500 779.333 600.757 706.667 L 601.013 634 590.507 634 L 580 634 580 706.500 M 625.980 636.219 C 625.762 661.607, 626.111 778.370, 626.406 778.848 C 627.028 779.855, 649.056 779.344, 650.102 778.298 C 650.639 777.761, 650.908 748.014, 650.757 705.943 L 650.500 634.500 638.250 634.219 C 626.087 633.940, 626 633.955, 625.980 636.219 M 675 706.500 L 675 779 679 779.091 C 681.200 779.141, 684.350 779.182, 686 779.182 C 687.650 779.182, 690.575 779.141, 692.500 779.091 L 696 779 696 706.500 L 696 634 685.500 634 L 675 634 675 706.500 M 721.243 706.632 L 721.500 779.264 730.500 779.430 C 735.450 779.522, 740.063 779.414, 740.750 779.191 C 741.735 778.872, 742 763.425, 742 706.393 L 742 634 731.493 634 L 720.987 634 721.243 706.632 M 767 706.434 L 767 778.867 777.088 779.184 C 782.636 779.358, 787.361 779.313, 787.588 779.083 C 787.814 778.854, 788 746.117, 788 706.333 L 788 634 777.500 634 L 767 634 767 706.434 M 0 866.469 C 0 867.735, 6.043 867.978, 43.615 868.219 L 87.230 868.500 90.597 872.396 C 92.449 874.539, 94.247 877.801, 94.593 879.646 C 94.949 881.539, 95.827 883, 96.611 883 C 99.885 883, 96.749 873.194, 92.343 869.652 C 86.528 864.977, 87.559 865.073, 42.750 865.035 C 5.796 865.005, 0 865.199, 0 866.469" stroke="none" fill="black" fill-rule="evenodd"/>
</svg>