<svg xmlns="http://www.w3.org/2000/svg" width="100%" height="auto" viewBox="0 0 1024 819" version="1.1">
	<path d="M 467 76.074 C 461.775 76.508, 450.221 77.347, 441.325 77.938 C 432.428 78.530, 421.628 79.655, 417.325 80.438 C 413.021 81.222, 406.125 82.150, 402 82.501 C 397.875 82.852, 391.125 83.824, 387 84.661 C 382.875 85.498, 374.775 87.025, 369 88.054 C 354.668 90.607, 342.446 93.368, 336.715 95.347 C 334.083 96.256, 330.837 97, 329.502 97 C 328.167 97, 324.920 97.845, 322.287 98.878 C 319.654 99.911, 315.475 101.087, 313 101.491 C 310.525 101.895, 308.050 102.585, 307.500 103.024 C 306.950 103.462, 303.664 104.555, 300.199 105.451 C 296.733 106.348, 292.458 107.684, 290.699 108.420 C 288.939 109.156, 282.775 111.241, 277 113.053 C 271.225 114.865, 263.800 117.358, 260.500 118.593 C 245.606 124.166, 240.433 126.266, 239.550 127.102 C 239.028 127.596, 237.878 128, 236.996 128 C 236.114 128, 232.942 129.175, 229.946 130.611 C 224.602 133.173, 218.449 136.014, 208.500 140.515 C 200.882 143.960, 173.145 157.844, 167.500 161.037 C 164.750 162.592, 160.813 164.619, 158.750 165.541 C 156.688 166.463, 155 167.569, 155 168 C 155 168.431, 153.313 169.509, 151.250 170.397 C 149.188 171.284, 144.642 173.808, 141.150 176.005 C 137.657 178.202, 134.601 180, 134.359 180 C 134.117 180, 132.700 180.841, 131.210 181.868 C 129.719 182.895, 124.514 186.383, 119.643 189.618 C 107.745 197.519, 107.106 197.939, 102.500 200.896 C 100.300 202.308, 94.797 206.284, 90.271 209.732 C 85.745 213.179, 81.784 216, 81.468 216 C 80.911 216, 67.848 226.225, 65.179 228.750 C 64.452 229.438, 63.552 230.007, 63.179 230.015 C 62.805 230.024, 60.162 232.161, 57.305 234.765 C 54.448 237.369, 51.287 240.175, 50.281 241 C 40.768 248.797, 30.214 257.857, 26.103 261.755 C 23.350 264.365, 16.351 270.971, 10.549 276.436 L -0 286.372 0 301.452 L 0 316.533 17.250 334.052 C 85.729 403.600, 100.474 418.201, 104.084 420.043 C 109.216 422.661, 115.484 422.753, 120.858 420.289 C 123.246 419.195, 129.833 413.744, 135.813 407.917 C 141.691 402.187, 148.525 395.794, 151 393.708 C 153.475 391.622, 156.175 389.325, 157 388.603 C 165.565 381.104, 169.093 378.088, 172.037 375.747 C 177.193 371.648, 187.281 363.967, 192.711 360.006 C 195.345 358.085, 197.725 356.279, 198 355.993 C 198.275 355.707, 201.200 353.679, 204.500 351.486 C 207.800 349.294, 210.725 347.274, 211 346.997 C 212.068 345.922, 222.177 340, 222.944 340 C 223.390 340, 224.343 339.292, 225.061 338.427 C 225.779 337.562, 227.971 335.970, 229.933 334.890 C 233.138 333.125, 236.079 331.413, 244 326.700 C 253.731 320.911, 268.060 313.614, 285 305.821 C 288.575 304.177, 293.075 302.018, 295 301.024 C 296.925 300.030, 299.962 298.908, 301.750 298.529 C 303.538 298.151, 305 297.485, 305 297.051 C 305 296.616, 307.137 295.668, 309.750 294.945 C 312.363 294.222, 316.590 292.589, 319.145 291.315 C 321.700 290.042, 324.423 289, 325.195 289 C 325.968 289, 327.027 288.631, 327.550 288.181 C 329.565 286.443, 375.876 272.838, 384.500 271.450 C 386.700 271.096, 391.474 269.950, 395.108 268.903 C 398.742 267.856, 403.045 267, 404.669 267 C 406.294 267, 410.971 266.134, 415.062 265.075 C 419.153 264.016, 427.675 262.643, 434 262.023 C 440.325 261.403, 447.300 260.452, 449.500 259.910 C 451.700 259.367, 465.762 258.412, 480.750 257.788 C 509.268 256.601, 558.056 257.813, 566.500 259.919 C 568.700 260.468, 575.900 261.436, 582.500 262.069 C 589.100 262.703, 596.430 263.870, 598.789 264.664 C 601.148 265.457, 606.323 266.499, 610.289 266.981 C 614.255 267.462, 619.075 268.360, 621 268.977 C 622.925 269.594, 627.650 270.725, 631.500 271.489 C 638.246 272.829, 645.646 274.781, 660.500 279.141 C 677.413 284.104, 687.569 287.382, 688.450 288.160 C 688.972 288.622, 690.032 289, 690.805 289 C 691.577 289, 694.352 290.076, 696.970 291.391 C 699.588 292.706, 703.253 294.108, 705.115 294.506 C 706.977 294.905, 709.625 295.812, 711 296.523 C 712.375 297.234, 715.975 298.925, 719 300.281 C 741.974 310.579, 762.115 320.660, 772 326.807 C 773.925 328.004, 776.625 329.540, 778 330.219 C 779.375 330.899, 782.919 333.040, 785.876 334.977 C 792.539 339.344, 793.313 339.826, 799.500 343.471 C 802.250 345.091, 807.046 348.235, 810.158 350.458 C 813.269 352.681, 816.809 355.175, 818.023 356 C 819.995 357.339, 823.708 360.075, 826.500 362.246 C 827.050 362.674, 829.300 364.376, 831.500 366.028 C 837.104 370.236, 839.853 372.338, 841.275 373.504 C 841.949 374.057, 844.975 376.515, 848 378.967 C 851.025 381.419, 854.895 384.792, 856.600 386.463 C 858.306 388.133, 861.110 390.520, 862.833 391.767 C 864.555 393.013, 871.113 399.023, 877.405 405.122 C 893.050 420.285, 896.473 422.455, 904.278 422.157 C 910.414 421.922, 915.173 418.704, 927.019 406.775 C 990.589 342.765, 1018.668 313.605, 1020.209 310 C 1021.149 307.800, 1022.363 306, 1022.907 306 C 1023.451 306, 1024.061 308.363, 1024.263 311.250 C 1024.465 314.137, 1024.624 309.300, 1024.616 300.500 C 1024.609 291.700, 1024.447 287.777, 1024.257 291.782 C 1024.067 295.786, 1023.538 298.833, 1023.082 298.551 C 1022.627 298.269, 1021.087 295.653, 1019.660 292.738 C 1017.780 288.896, 1013.975 284.558, 1005.825 276.969 C 999.642 271.211, 992.539 264.458, 990.042 261.962 C 987.544 259.466, 981.450 254.068, 976.500 249.965 C 971.550 245.863, 967.275 242.261, 967 241.961 C 966.207 241.096, 951.711 229.026, 949.500 227.390 C 940.288 220.572, 937.344 218.364, 936.312 217.500 C 935.656 216.950, 933.491 215.375, 931.500 214 C 929.509 212.625, 926.008 209.990, 923.720 208.145 C 917.586 203.199, 894.542 188, 893.176 188 C 892.529 188, 892 187.617, 892 187.149 C 892 186.440, 882.573 180, 881.534 180 C 881.351 180, 878.343 178.202, 874.850 176.005 C 871.358 173.808, 866.813 171.284, 864.750 170.397 C 862.688 169.509, 861 168.431, 861 168 C 861 167.569, 859.313 166.463, 857.250 165.541 C 855.188 164.619, 851.343 162.658, 848.707 161.182 C 842.836 157.897, 812.011 142.459, 806.500 140.044 C 800.578 137.449, 793.957 134.417, 790 132.488 C 779.010 127.129, 741.707 113.157, 731.432 110.550 C 728.644 109.843, 725.484 108.794, 724.408 108.219 C 723.333 107.643, 719.539 106.418, 715.977 105.497 C 712.414 104.575, 709.050 103.462, 708.500 103.024 C 707.950 102.585, 705.475 101.895, 703 101.491 C 700.525 101.087, 696.346 99.911, 693.713 98.878 C 691.080 97.845, 687.833 97, 686.498 97 C 685.163 97, 681.917 96.266, 679.285 95.370 C 668.596 91.728, 631.970 84.799, 606.500 81.600 C 604.300 81.324, 597.100 80.425, 590.500 79.602 C 558.021 75.555, 494.950 73.753, 467 76.074 M 472.500 116.686 C 466.490 116.979, 455.244 117.995, 430 120.524 C 422.575 121.268, 412.900 122.563, 408.500 123.403 C 404.100 124.243, 398.894 124.946, 396.932 124.965 C 394.969 124.984, 391.133 125.662, 388.408 126.471 C 385.683 127.281, 380.185 128.406, 376.190 128.973 C 372.196 129.539, 366.258 130.902, 362.996 132.001 C 359.733 133.101, 355.684 134, 353.999 134 C 352.314 134, 349.263 134.709, 347.218 135.575 C 345.173 136.441, 341.025 137.555, 338 138.050 C 334.975 138.546, 330.925 139.596, 329 140.385 C 327.075 141.173, 322.575 142.528, 319 143.396 C 312.375 145.003, 296.325 149.805, 290 152.071 C 288.075 152.761, 284.025 154.212, 281 155.296 C 277.975 156.380, 272.969 158.332, 269.875 159.634 C 266.781 160.935, 263.349 162, 262.247 162 C 261.146 162, 259.704 162.652, 259.042 163.449 C 258.381 164.246, 256.189 165.408, 254.170 166.032 C 252.152 166.655, 248.475 168.094, 246 169.228 C 243.525 170.362, 240.150 171.860, 238.500 172.558 C 223.271 178.996, 189.841 195.734, 178 202.849 C 176.075 204.005, 172.300 206.200, 169.611 207.726 C 166.922 209.252, 163.996 210.950, 163.108 211.500 C 162.220 212.050, 158.571 214.300, 155 216.500 C 151.429 218.700, 147.777 220.950, 146.886 221.500 C 145.994 222.050, 143.968 223.362, 142.382 224.415 C 140.797 225.469, 136.350 228.373, 132.500 230.870 C 128.650 233.366, 124.695 236.217, 123.711 237.204 C 122.727 238.192, 121.551 239, 121.099 239 C 120.646 239, 118.657 240.238, 116.679 241.750 C 114.701 243.262, 111.455 245.625, 109.465 247 C 104.945 250.124, 88.847 262.857, 87.500 264.374 C 86.950 264.993, 85.364 266.084, 83.975 266.798 C 82.587 267.513, 79.887 269.539, 77.975 271.302 C 76.064 273.064, 71.602 276.980, 68.059 280.003 C 64.517 283.026, 60.680 286.400, 59.532 287.500 C 58.384 288.600, 55.208 291.531, 52.473 294.014 C 45.445 300.393, 44.671 301.524, 45.852 303.686 C 47.634 306.948, 111.669 371, 113.149 371 C 113.942 371, 118.170 367.799, 122.545 363.886 C 132.709 354.796, 137.397 350.854, 148.500 342.059 C 157.732 334.746, 158.250 334.344, 168.500 326.530 C 174.566 321.905, 208.772 299, 209.612 299 C 209.862 299, 214.665 296.221, 220.284 292.825 C 225.903 289.428, 235.900 283.991, 242.500 280.742 C 249.100 277.492, 255.175 274.434, 256 273.946 C 257.765 272.902, 267.142 268.349, 275.188 264.630 C 278.317 263.183, 281.479 262, 282.216 262 C 282.952 262, 284.443 261.382, 285.527 260.626 C 289.460 257.886, 318.862 246.969, 333 242.998 C 336.575 241.994, 340.850 240.698, 342.500 240.117 C 349.903 237.512, 362.301 234, 364.094 234 C 365.178 234, 367.680 233.325, 369.655 232.499 C 371.631 231.674, 376.229 230.539, 379.873 229.976 C 383.518 229.414, 387.625 228.509, 389 227.965 C 395.122 225.544, 441.122 218.985, 466 216.987 C 484.875 215.470, 528.201 215.448, 548.500 216.944 C 573.864 218.813, 622.449 225.570, 626.659 227.813 C 627.672 228.353, 631.999 229.323, 636.275 229.969 C 640.551 230.616, 645.276 231.784, 646.775 232.566 C 648.274 233.348, 650.485 233.990, 651.688 233.994 C 653.684 233.999, 666.154 237.509, 673.500 240.133 C 675.150 240.722, 678.750 241.767, 681.500 242.455 C 689.621 244.488, 717.976 254.674, 719.450 256.088 C 719.972 256.590, 721.143 257, 722.051 257 C 722.959 257, 725.818 258.125, 728.404 259.500 C 730.990 260.875, 733.560 262, 734.115 262 C 735.203 262, 745.538 266.516, 748 268.067 C 748.825 268.587, 750.175 269.301, 751 269.654 C 755.632 271.634, 758.670 273.066, 760 273.895 C 760.825 274.409, 766.900 277.504, 773.500 280.772 C 783.668 285.806, 790.109 289.352, 803.500 297.286 C 804.600 297.938, 812.624 303.202, 821.331 308.985 C 830.038 314.768, 838.363 320.136, 839.831 320.913 C 842.265 322.202, 851.344 329.048, 855 332.351 C 855.825 333.096, 857.834 334.560, 859.463 335.603 C 861.093 336.646, 863.568 338.565, 864.963 339.867 C 866.359 341.168, 870.200 344.303, 873.500 346.832 C 876.800 349.361, 879.950 351.923, 880.500 352.526 C 881.050 353.129, 884.200 355.905, 887.500 358.695 C 890.800 361.485, 895.275 365.396, 897.445 367.384 C 899.615 369.373, 901.969 371, 902.677 371 C 904.036 371, 916.677 359.583, 920.946 354.500 C 922.332 352.850, 933.717 341.222, 946.246 328.660 C 958.775 316.098, 969.501 304.932, 970.082 303.846 C 971.339 301.498, 970.673 300.500, 963.527 294.014 C 960.792 291.531, 957.622 288.600, 956.481 287.500 C 955.340 286.400, 951.748 283.250, 948.499 280.500 C 945.250 277.750, 941.848 274.825, 940.940 274 C 940.031 273.175, 937.986 271.506, 936.394 270.291 C 934.802 269.076, 928.100 263.803, 921.500 258.573 C 904.494 245.097, 903.826 244.586, 902.074 243.732 C 901.208 243.309, 898.700 241.607, 896.500 239.948 C 888.714 234.077, 880.961 228.857, 875.933 226.101 C 873.971 225.026, 871.779 223.438, 871.061 222.573 C 870.343 221.708, 869.346 221, 868.845 221 C 868.345 221, 864.687 218.910, 860.718 216.356 C 851.125 210.184, 847.010 207.687, 844 206.210 C 842.625 205.536, 839.925 204.022, 838 202.846 C 827.309 196.314, 792.644 178.960, 777.500 172.558 C 775.850 171.860, 772.475 170.362, 770 169.228 C 767.525 168.094, 763.848 166.655, 761.830 166.032 C 759.811 165.408, 757.619 164.246, 756.958 163.449 C 756.296 162.652, 754.854 162, 753.753 162 C 752.651 162, 749.219 160.935, 746.125 159.634 C 743.031 158.332, 738.025 156.380, 735 155.296 C 731.975 154.212, 727.925 152.761, 726 152.072 C 724.075 151.382, 720.250 150.134, 717.500 149.298 C 714.750 148.462, 709.575 146.855, 706 145.728 C 702.425 144.600, 697.025 143.109, 694 142.415 C 690.975 141.720, 686.700 140.462, 684.500 139.620 C 682.300 138.777, 679.279 138.068, 677.787 138.044 C 676.295 138.020, 672.791 137.100, 670 136 C 667.209 134.900, 663.578 134, 661.931 134 C 660.284 134, 656.300 133.112, 653.077 132.026 C 649.854 130.940, 643.905 129.554, 639.858 128.945 C 635.811 128.336, 630.250 127.238, 627.500 126.504 C 624.750 125.771, 619.416 124.890, 615.646 124.547 C 611.876 124.204, 606.026 123.307, 602.646 122.555 C 599.266 121.803, 592.225 120.886, 587 120.517 C 581.775 120.149, 572.550 119.189, 566.500 118.385 C 556.310 117.030, 490.001 115.832, 472.500 116.686 M 0.405 301.500 C 0.406 310.300, 0.559 313.766, 0.745 309.203 C 0.930 304.639, 0.929 297.439, 0.742 293.203 C 0.555 288.966, 0.404 292.700, 0.405 301.500 M 480.500 357.641 C 467.850 358.276, 455.025 359.304, 452 359.927 C 448.975 360.549, 441.724 361.699, 435.887 362.482 C 430.050 363.266, 423.525 364.566, 421.387 365.371 C 419.249 366.176, 415.025 367.113, 412 367.453 C 408.975 367.793, 403.800 368.935, 400.500 369.991 C 397.200 371.047, 390.225 373.106, 385 374.566 C 371.989 378.203, 357.018 383.015, 354 384.529 C 352.625 385.219, 348.125 387.032, 344 388.559 C 334.588 392.040, 324.251 396.785, 323.527 397.956 C 323.225 398.445, 321.520 399.158, 319.739 399.539 C 317.957 399.919, 315.896 400.718, 315.159 401.314 C 314.421 401.909, 309.151 404.735, 303.447 407.595 C 292.627 413.019, 291.063 413.940, 272.723 425.692 C 261.410 432.941, 254.152 437.984, 247.092 443.500 C 244.980 445.150, 240.608 448.402, 237.376 450.726 C 234.144 453.051, 229.644 456.710, 227.375 458.857 C 225.106 461.004, 222.560 463.152, 221.716 463.630 C 218.642 465.374, 195.759 487.570, 194.531 490 C 193.837 491.375, 192.717 494.847, 192.043 497.716 C 189.641 507.936, 189.992 508.425, 225.935 544.885 C 293.233 613.150, 298.433 618.283, 301.651 619.628 C 307.225 621.957, 322 620.718, 322 617.922 C 322 617.380, 322.728 616.658, 323.619 616.316 C 324.509 615.974, 328.117 612.830, 331.636 609.327 C 335.156 605.825, 339.940 601.504, 342.268 599.726 C 344.595 597.947, 349.650 594.009, 353.500 590.974 C 368.395 579.233, 390.711 566.460, 411 558.063 C 414.025 556.812, 418.425 554.935, 420.777 553.894 C 423.129 552.852, 425.604 552.002, 426.277 552.004 C 426.950 552.007, 431.100 550.935, 435.500 549.622 C 447.138 546.149, 465.509 542.199, 473 541.557 C 476.575 541.251, 483.325 540.554, 488 540.008 C 517.240 536.593, 571.297 543.733, 594.777 554.110 C 597.129 555.149, 599.519 556, 600.089 556 C 600.658 556, 603.683 557.165, 606.812 558.589 C 630.253 569.259, 651.079 581.417, 663.865 591.896 C 666.964 594.436, 671.138 597.734, 673.140 599.224 C 675.142 600.715, 679.905 605.022, 683.725 608.797 C 687.544 612.571, 691.419 615.947, 692.335 616.298 C 693.251 616.650, 694 617.380, 694 617.922 C 694 619.322, 700.657 620.988, 706.282 620.994 C 715.804 621.006, 709.736 626.412, 778.440 556.708 C 828.068 506.357, 827.028 507.783, 823.359 495.163 C 821.954 490.330, 820.549 488.366, 813.594 481.509 C 801.074 469.167, 788.242 457.875, 778.598 450.715 C 775.794 448.632, 771.700 445.573, 769.500 443.916 C 755.587 433.436, 751.058 430.396, 727.034 415.410 C 724.028 413.535, 716.955 409.731, 711.316 406.956 C 705.677 404.181, 700.797 401.481, 700.473 400.956 C 700.148 400.430, 699.121 399.993, 698.191 399.985 C 697.261 399.977, 695.375 399.317, 694 398.519 C 682.594 391.898, 652.887 380.596, 630 374.169 C 625.875 373.011, 619.350 371.151, 615.500 370.037 C 611.650 368.922, 606.250 367.740, 603.500 367.410 C 600.750 367.080, 597.123 366.197, 595.441 365.449 C 593.758 364.700, 588.133 363.598, 582.941 363 C 577.748 362.403, 570.800 361.274, 567.500 360.491 C 561.835 359.149, 533.933 357.215, 513 356.713 C 507.775 356.588, 493.150 357.006, 480.500 357.641 M 494 398.696 C 474.753 399.463, 455.916 401.037, 450 402.373 C 446.425 403.180, 440.125 404.321, 436 404.908 C 411.563 408.387, 370.092 420.918, 352.802 430.047 C 350.768 431.121, 348.591 432, 347.964 432 C 343.906 432, 294.077 459.386, 286.474 465.795 C 285.910 466.271, 284.110 467.504, 282.474 468.535 C 280.838 469.566, 277.475 472.027, 275 474.005 C 272.525 475.983, 268.084 479.303, 265.132 481.384 C 260.037 484.974, 256.369 488.025, 249.665 494.250 C 248.036 495.762, 246.433 497.003, 246.102 497.006 C 245.771 497.010, 244.768 498.299, 243.874 499.871 L 242.248 502.730 276.089 536.943 C 304.637 565.805, 310.259 571.052, 312.035 570.489 C 313.192 570.122, 317.981 566.739, 322.676 562.971 C 331.363 556.001, 349.464 543.417, 354 541.194 C 355.375 540.520, 358.525 538.638, 361 537.011 C 363.475 535.385, 367.188 533.319, 369.250 532.419 C 371.313 531.519, 373 530.382, 373 529.891 C 373 529.401, 373.533 529, 374.184 529 C 374.836 529, 377.198 528.140, 379.434 527.090 C 386.766 523.645, 394.437 520.297, 398 518.987 C 399.925 518.279, 402.850 517.134, 404.500 516.441 C 409.989 514.138, 420.421 510.852, 426.957 509.367 C 430.509 508.561, 433.884 507.519, 434.457 507.053 C 435.031 506.586, 439.100 505.664, 443.500 505.003 C 447.900 504.342, 453.300 503.187, 455.500 502.437 C 460.351 500.783, 480.900 498.959, 502.265 498.286 C 519.558 497.742, 552.208 500.095, 560 502.449 C 562.475 503.196, 566.975 504.127, 570 504.517 C 573.025 504.907, 577.525 505.911, 580 506.749 C 582.475 507.586, 586.975 508.848, 590 509.553 C 595.956 510.941, 606.690 514.400, 611.500 516.480 C 613.150 517.194, 615.625 518.106, 617 518.508 C 619.673 519.289, 627.352 522.636, 635.514 526.578 C 638.272 527.910, 641.085 529, 641.764 529 C 642.444 529, 643 529.401, 643 529.891 C 643 530.382, 644.826 531.514, 647.059 532.407 C 649.291 533.300, 651.653 534.482, 652.309 535.034 C 654.621 536.981, 662.511 541.964, 663.309 541.982 C 664.852 542.017, 685.543 556.458, 693.526 563.073 C 697.940 566.730, 702.590 570.053, 703.859 570.455 C 705.902 571.104, 710.026 567.282, 739.958 536.998 L 773.751 502.809 772.266 499.831 C 771.449 498.193, 770.110 496.596, 769.290 496.281 C 768.471 495.967, 766.811 494.762, 765.602 493.605 C 759.847 488.096, 743.610 475.256, 734.486 469 C 724.554 462.190, 713.331 455.122, 705.274 450.602 C 692.568 443.475, 669.510 432, 667.894 432 C 667.097 432, 665.519 431.351, 664.387 430.558 C 663.255 429.765, 659.892 428.150, 656.914 426.970 C 653.936 425.789, 649.250 423.931, 646.500 422.842 C 629.052 415.931, 598.516 407.702, 578.500 404.517 C 574.100 403.817, 566.450 402.538, 561.500 401.674 C 553.681 400.311, 509.067 397.635, 503.500 398.196 C 502.400 398.307, 498.125 398.532, 494 398.696 M 490 640.067 C 488.075 640.541, 482.900 641.394, 478.500 641.963 C 474.100 642.533, 465.550 644.588, 459.500 646.531 C 448.817 649.961, 428.094 659.647, 421 664.526 C 410.651 671.642, 403.535 677.470, 396.764 684.372 C 389.285 691.995, 387.195 702.636, 391.533 711 C 392.247 712.375, 411.090 731.950, 433.407 754.500 C 455.724 777.050, 478.563 800.140, 484.159 805.811 C 489.755 811.481, 495.586 816.769, 497.117 817.561 C 500.807 819.469, 515.143 819.495, 518.807 817.600 C 520.295 816.830, 528.936 808.727, 538.007 799.594 C 593.114 744.108, 623.283 713.183, 624.471 710.965 C 626.807 706.604, 627.340 701.087, 625.976 695.401 C 624.616 689.732, 619.917 683.973, 609.911 675.711 C 598.169 666.016, 580.624 655.567, 566.500 649.858 C 559.103 646.867, 544.538 642.715, 540 642.303 C 537.525 642.079, 532.189 641.243, 528.143 640.447 C 520.104 638.866, 495.858 638.624, 490 640.067 M 494.500 680.933 C 486.296 681.789, 471.374 685.403, 467.328 687.513 C 465.772 688.324, 463.976 688.990, 463.335 688.994 C 462.694 688.997, 459.319 690.568, 455.835 692.484 C 452.351 694.400, 447.813 696.884, 445.750 698.004 C 443.076 699.456, 442 700.708, 442 702.366 C 442 704.080, 450.519 713.281, 474.385 737.346 C 492.197 755.306, 507.331 770, 508.016 770 C 508.701 770, 523.828 755.319, 541.631 737.376 C 565.290 713.530, 574 704.132, 574 702.451 C 574 700.029, 571.586 698.325, 559.500 692.217 C 540.530 682.629, 517.148 678.570, 494.500 680.933" stroke="none" fill="black" fill-rule="evenodd"/>
</svg>