<svg xmlns="http://www.w3.org/2000/svg" width="100%" height="auto" viewBox="0 0 813 827" version="1.1">
	<path d="M 387.258 144.576 C 351.695 148.885, 312.515 163.672, 284.130 183.500 C 241.801 213.068, 210.800 252.750, 192.725 300.500 C 181.746 329.505, 176.812 357.130, 176.740 390 C 176.686 414.753, 180.345 441.909, 185.983 458.600 C 188.197 465.154, 188.096 464.049, 184.841 446 C 181.890 429.644, 181.207 398, 183.437 381 C 185.787 363.083, 192.030 338.644, 196.431 330.134 C 197.294 328.465, 198 326.214, 198 325.133 C 198 324.052, 198.354 323.017, 198.787 322.833 C 199.517 322.524, 203.513 314.777, 205.923 309 C 206.496 307.625, 207.986 304.874, 209.233 302.888 C 210.480 300.901, 213.415 296.146, 215.755 292.320 C 218.096 288.495, 220.814 284.496, 221.797 283.433 C 224.327 280.694, 230 272.302, 230 271.297 C 230 270.834, 231.760 268.935, 233.911 267.077 C 236.113 265.175, 237.595 263.109, 237.304 262.350 C 237.013 261.592, 237.435 261, 238.266 261 C 239.080 261, 241.091 259.425, 242.735 257.500 C 244.379 255.575, 246.221 254, 246.827 254 C 247.434 254, 248.430 253.066, 249.041 251.924 C 250.573 249.061, 261.747 238, 263.107 238 C 263.716 238, 263.946 237.302, 263.618 236.448 C 263.289 235.591, 263.449 235.159, 263.975 235.485 C 265.043 236.145, 269.141 232.474, 268.287 231.621 C 267.987 231.321, 269.037 230.501, 270.621 229.799 C 272.204 229.097, 274.095 227.956, 274.821 227.262 C 275.548 226.568, 276.800 226, 277.603 226 C 278.406 226, 279.347 225.259, 279.695 224.352 C 280.350 222.645, 285.839 217.022, 286.898 216.972 C 287.229 216.956, 289.509 215.156, 291.964 212.972 C 294.419 210.787, 296.856 209, 297.380 209 C 297.905 209, 298.040 208.707, 297.682 208.349 C 296.795 207.462, 300.087 205.071, 302.250 205.032 C 303.212 205.014, 304.868 204.213, 305.928 203.250 C 309.347 200.148, 309.363 200.138, 320.500 194.297 C 332.449 188.030, 343.373 184.334, 367 178.564 C 376.349 176.281, 392.299 174.844, 401 175.501 C 405.125 175.812, 415.469 176.259, 423.987 176.495 C 433.428 176.756, 439.609 177.328, 439.820 177.961 C 440.011 178.533, 440.804 179, 441.583 179 C 442.363 179, 443 179.450, 443 180 C 443 180.550, 444.913 181.032, 447.250 181.070 C 450.542 181.125, 451.049 181.334, 449.500 182 C 448.153 182.579, 447.990 182.887, 449 182.945 C 450.333 183.021, 450.333 183.138, 449 184 C 447.871 184.730, 448.351 184.973, 450.940 184.985 C 455.422 185.005, 466 187.197, 466 188.106 C 466 188.495, 466.833 188.595, 467.851 188.329 C 468.869 188.063, 470.378 188.521, 471.205 189.348 C 472.983 191.126, 479.626 194.041, 480.320 193.347 C 480.585 193.081, 483.153 193.562, 486.025 194.415 C 488.897 195.268, 491.645 195.720, 492.131 195.419 C 493.161 194.782, 496 197.358, 496 198.929 C 496 199.909, 499.068 200.526, 501.500 200.035 C 502.050 199.924, 502.146 200.187, 501.713 200.620 C 500.709 201.624, 508.620 204.870, 512.250 204.944 C 513.762 204.975, 514.887 205.338, 514.750 205.750 C 514.612 206.162, 514.910 206.572, 515.410 206.660 C 515.911 206.749, 516.732 207.556, 517.234 208.454 C 517.771 209.413, 518.864 209.861, 519.880 209.538 C 520.878 209.221, 522.568 209.880, 523.871 211.094 C 525.210 212.342, 526.918 212.993, 528.065 212.693 C 529.129 212.415, 530 212.670, 530 213.260 C 530 213.850, 530.297 214.036, 530.661 213.673 C 531.024 213.309, 531.812 213.994, 532.411 215.195 C 533.049 216.474, 535.944 218.360, 539.405 219.751 C 542.653 221.056, 546.173 223.221, 547.227 224.562 C 548.282 225.903, 549.964 227, 550.966 227 C 551.967 227, 553.045 227.675, 553.362 228.500 C 553.678 229.325, 554.514 230.001, 555.219 230.002 C 555.923 230.004, 558.075 231.385, 560 233.072 C 561.925 234.759, 564.513 236.547, 565.750 237.045 C 566.987 237.543, 568 238.524, 568 239.225 C 568 240.861, 574.407 246, 576.447 246 C 577.301 246, 578 246.675, 578 247.500 C 578 248.325, 578.675 249, 579.500 249 C 580.333 249, 581 249.889, 581 251 C 581 252.226, 581.677 253.012, 582.750 253.031 C 583.712 253.048, 586.075 255.185, 588 257.781 C 589.925 260.376, 593.334 264.300, 595.576 266.500 C 597.817 268.700, 601.703 273.514, 604.211 277.198 C 606.718 280.882, 609.047 283.620, 609.385 283.282 C 609.723 282.943, 610 283.431, 610 284.365 C 610 285.299, 610.675 286.322, 611.500 286.638 C 612.325 286.955, 613 287.682, 613 288.253 C 613 288.825, 614.522 291.590, 616.382 294.396 C 619.401 298.953, 621.613 302.672, 624.836 308.613 C 626.843 312.313, 633.754 327.560, 634.984 331 C 635.672 332.925, 636.814 335.850, 637.522 337.500 C 641.021 345.656, 645.745 365.537, 648.096 382 C 649.687 393.140, 649.704 425.345, 648.125 435.500 C 647.441 439.900, 645.999 448.179, 644.922 453.898 C 643.844 459.617, 643.135 464.468, 643.345 464.678 C 643.555 464.889, 645.117 459.759, 646.816 453.280 C 664.838 384.553, 652.249 309.094, 612.984 250.490 C 572.918 190.691, 511.703 152.497, 443.054 144.467 C 427.806 142.683, 402.474 142.733, 387.258 144.576 M 401.750 174.706 C 402.988 174.944, 405.012 174.944, 406.250 174.706 C 407.488 174.467, 406.475 174.272, 404 174.272 C 401.525 174.272, 400.512 174.467, 401.750 174.706 M 435.500 181 C 435.840 181.550, 436.991 182, 438.059 182 C 439.127 182, 440 181.550, 440 181 C 440 180.450, 438.848 180, 437.441 180 C 435.990 180, 435.149 180.433, 435.500 181 M 464.813 183.683 C 465.534 183.972, 466.397 183.936, 466.729 183.604 C 467.061 183.272, 466.471 183.036, 465.417 183.079 C 464.252 183.127, 464.015 183.364, 464.813 183.683 M 399 229.035 C 359.804 233.835, 323.388 253.634, 297.890 284.009 C 270.899 316.163, 256.888 360.296, 259.955 403.500 C 260.777 415.067, 263.795 434.538, 264.636 433.697 C 264.861 433.472, 264.302 427.261, 263.393 419.894 C 261.395 403.693, 262.496 386.451, 266.546 370.500 C 267.942 365, 269.523 358.789, 270.059 356.698 C 271.333 351.725, 278.535 336.367, 284.004 326.957 C 291.058 314.821, 298.651 305.099, 308.963 295 C 329.396 274.988, 353.763 261.375, 379.792 255.431 C 423.043 245.553, 464.480 253.569, 502.576 279.182 C 511.576 285.233, 512.970 286.843, 510.048 287.817 C 509.257 288.081, 509.004 287.803, 509.420 287.130 C 509.825 286.475, 509.463 286, 508.559 286 C 507.702 286, 507 285.636, 507 285.190 C 507 284.211, 495.699 276.668, 491.500 274.844 C 489.850 274.127, 488.275 273.261, 488 272.920 C 486.982 271.656, 482.459 269.589, 481.250 269.834 C 480.563 269.974, 480 269.618, 480 269.044 C 480 268.470, 479.100 268, 478 268 C 476.900 268, 476 267.502, 476 266.893 C 476 266.284, 475.338 266.040, 474.528 266.351 C 473.719 266.661, 471.806 266.517, 470.278 266.030 C 468.750 265.542, 464.906 264.853, 461.736 264.498 C 458.567 264.143, 456.161 263.548, 456.390 263.176 C 456.939 262.288, 440.653 262.259, 439.993 263.148 C 439.715 263.524, 437.465 264.141, 434.993 264.521 C 428.034 265.589, 422 267.658, 422 268.975 C 422 270.208, 424.256 271.666, 427.283 272.390 C 428.814 272.755, 430.825 273.941, 431.752 275.023 C 432.679 276.106, 434.914 277.268, 436.719 277.607 C 438.523 277.946, 440 278.584, 440 279.026 C 440 280.061, 448.811 285, 450.657 285 C 451.430 285, 452.322 285.675, 452.638 286.500 C 452.955 287.325, 453.841 288, 454.607 288 C 455.373 288, 456 288.407, 456 288.905 C 456 289.403, 457.913 290.936, 460.250 292.312 C 462.587 293.688, 466.487 296.656, 468.916 298.907 C 471.345 301.158, 473.512 303, 473.730 303 C 473.949 303, 475.336 304.111, 476.814 305.469 C 490.524 318.071, 493.050 320.581, 493.523 322.073 C 493.822 323.014, 494.951 324.016, 496.033 324.298 C 497.115 324.581, 498 325.530, 498 326.406 C 498 327.434, 498.877 328, 500.469 328 C 502.267 328, 502.779 328.413, 502.354 329.520 C 501.975 330.508, 503.999 333.324, 508.135 337.561 C 511.636 341.146, 515.419 345.881, 516.542 348.082 C 517.664 350.283, 518.902 351.765, 519.292 351.375 C 519.681 350.985, 520 351.226, 520 351.910 C 520 352.594, 521.350 354.504, 523 356.154 C 524.650 357.804, 526 359.750, 526 360.478 C 526 361.944, 532.285 366, 534.557 366 C 535.351 366, 536 366.450, 536 367 C 536 367.550, 535.460 368, 534.800 368 C 533.877 368, 533.881 368.281, 534.819 369.219 C 536.679 371.079, 543.941 372.968, 549.300 372.985 C 553.403 372.998, 554.600 372.513, 557.554 369.645 C 560.498 366.785, 560.916 365.828, 560.382 363.161 C 560.038 361.440, 559.412 360.246, 558.990 360.506 C 558.297 360.934, 557.193 357.157, 556.745 352.823 C 556.650 351.901, 556.266 351.336, 555.892 351.567 C 555.519 351.797, 554.909 350.752, 554.537 349.243 C 553.153 343.624, 542.139 322.493, 537.261 316.098 C 535.752 314.119, 534.543 312.275, 534.575 312 C 534.608 311.725, 533.368 310.150, 531.822 308.500 C 530.275 306.850, 529.007 305.177, 529.005 304.781 C 529.002 304.386, 528.325 304.322, 527.500 304.638 C 526.542 305.006, 526 304.621, 526 303.573 C 526 302.671, 524.538 300.579, 522.750 298.925 C 513.191 290.078, 510.631 287, 512.830 287 C 513.770 287, 527.886 300.736, 532.607 306.245 C 560.330 338.592, 573.945 384.637, 567.544 424.392 C 565.556 436.736, 566.205 438.224, 568.377 426.303 C 574.981 390.058, 571.991 358.493, 558.895 326.215 C 540.944 281.971, 501.820 246.565, 457 234.004 C 439.721 229.161, 415.158 227.057, 399 229.035 M 318.140 298.500 C 315.217 300.425, 312.435 302, 311.958 302 C 311.481 302, 310.009 303.012, 308.686 304.250 C 298.502 313.777, 295 317.282, 295 317.949 C 295 318.373, 293.519 320.290, 291.709 322.209 C 289.899 324.128, 287.318 328.016, 285.973 330.849 C 284.628 333.682, 283.184 336, 282.764 336 C 282.344 336, 282 336.689, 282 337.531 C 282 338.374, 281.306 339.329, 280.458 339.654 C 279.610 339.980, 278.987 340.978, 279.073 341.873 C 279.366 344.900, 279.004 346.121, 278 345.500 C 277.450 345.160, 277 345.809, 277 346.941 C 277 348.073, 276.643 349, 276.207 349 C 275.771 349, 274.555 351.587, 273.504 354.750 C 272.454 357.913, 271.272 361.175, 270.879 362 C 269.272 365.371, 266.818 379.139, 267.406 381.483 C 268.235 384.783, 269.611 384.685, 270.470 381.264 C 271.085 378.811, 271.261 378.715, 272.168 380.336 C 272.923 381.685, 272.751 382.617, 271.492 384.009 C 270.564 385.035, 270.104 386.360, 270.471 386.953 C 271.403 388.460, 273.255 387.107, 272.600 385.399 C 272.196 384.348, 273.030 384, 275.948 384 C 278.085 384, 280.010 384.531, 280.227 385.180 C 280.468 385.903, 281.361 386.075, 282.532 385.626 C 284.111 385.020, 284.194 384.738, 283.006 384.003 C 281.920 383.332, 282.669 382.642, 286.061 381.188 C 289.457 379.733, 290.598 378.680, 290.731 376.881 C 290.827 375.571, 292.053 373.583, 293.453 372.462 C 295.002 371.223, 296 369.410, 296 367.835 C 296 366.410, 296.675 364.685, 297.500 364 C 298.325 363.315, 299 361.644, 299 360.285 C 299 358.927, 299.894 356.679, 300.986 355.290 C 302.079 353.901, 302.696 352.318, 302.358 351.771 C 302.020 351.224, 302.148 350.489, 302.642 350.138 C 303.136 349.787, 305.036 346.511, 306.865 342.859 C 310.178 336.239, 310.183 336.209, 308.344 333.359 L 306.500 330.500 309.176 332.225 C 311.845 333.945, 311.854 333.941, 312.506 330.975 C 312.865 329.339, 313.565 328, 314.060 328 C 314.840 328, 316.348 324.053, 316.462 321.714 C 316.483 321.281, 316.983 320.606, 317.573 320.214 C 319.725 318.782, 325.298 305.627, 325.630 301.193 C 325.817 298.687, 326.540 296.275, 327.235 295.833 C 328.065 295.307, 327.633 295.025, 325.977 295.015 C 324.590 295.007, 321.063 296.575, 318.140 298.500 M 103.079 310.583 C 103.127 311.748, 103.364 311.985, 103.683 311.188 C 103.972 310.466, 103.936 309.603, 103.604 309.271 C 103.272 308.939, 103.036 309.529, 103.079 310.583 M 728.079 313.583 C 728.127 314.748, 728.364 314.985, 728.683 314.188 C 728.972 313.466, 728.936 312.603, 728.604 312.271 C 728.272 311.939, 728.036 312.529, 728.079 313.583 M 731.079 329.583 C 731.127 330.748, 731.364 330.985, 731.683 330.188 C 731.972 329.466, 731.936 328.603, 731.604 328.271 C 731.272 327.939, 731.036 328.529, 731.079 329.583 M 99.079 331.583 C 99.127 332.748, 99.364 332.985, 99.683 332.188 C 99.972 331.466, 99.936 330.603, 99.604 330.271 C 99.272 329.939, 99.036 330.529, 99.079 331.583 M 732.158 334 C 732.158 335.375, 732.385 335.938, 732.662 335.250 C 732.940 334.563, 732.940 333.438, 732.662 332.750 C 732.385 332.063, 732.158 332.625, 732.158 334 M 409 334.720 C 386.216 337.321, 365.418 351.427, 355.495 371.010 C 350.396 381.072, 348.515 389.669, 348.604 402.500 C 348.675 412.664, 349.085 415.662, 351.285 422.096 C 356.211 436.500, 365.837 449.512, 377.523 457.561 C 382.312 460.859, 383.004 461.735, 382.559 463.942 C 365.623 547.933, 344.359 625.551, 324.437 676.102 C 311.818 708.123, 291.832 749.342, 278.867 770.088 C 277.290 772.611, 276 775.198, 276 775.838 C 276 776.697, 284.571 777, 308.913 777 L 341.825 777 347.163 773.564 C 350.098 771.674, 353.458 769.444, 354.629 768.609 C 356.792 767.065, 361.919 754.831, 367.876 737 C 370.049 730.496, 372.855 724.837, 376.775 719.055 C 385.697 705.894, 383.859 706.552, 412.647 706.200 L 437.153 705.900 441.466 708.427 C 447.305 711.849, 455.403 724.503, 459.751 737 C 461.570 742.225, 464.905 751.333, 467.163 757.239 L 471.270 767.979 477.591 771.514 C 481.068 773.458, 484.183 775.488, 484.515 776.024 C 485.074 776.929, 552 777.530, 552 776.630 C 552 776.426, 549.016 771.138, 545.369 764.880 C 532.841 743.378, 517.123 710.891, 505.327 682.115 C 486.432 636.021, 465.329 561.741, 448.616 482.500 C 444.127 461.214, 443.784 463.895, 451.659 458.712 C 480.682 439.608, 490.963 404.172, 476.388 373.468 C 466.275 352.160, 448.096 338.825, 424 335.037 C 417.494 334.014, 415.541 333.973, 409 334.720 M 97.600 339.100 C 97.234 341.392, 97.129 343.462, 97.368 343.701 C 97.606 343.940, 98.116 342.274, 98.500 340 C 98.884 337.726, 98.989 335.655, 98.732 335.399 C 98.476 335.143, 97.966 336.808, 97.600 339.100 M 733.158 342 C 733.158 343.375, 733.385 343.938, 733.662 343.250 C 733.940 342.563, 733.940 341.438, 733.662 340.750 C 733.385 340.063, 733.158 340.625, 733.158 342 M 729.079 369.583 C 729.127 370.748, 729.364 370.985, 729.683 370.188 C 729.972 369.466, 729.936 368.603, 729.604 368.271 C 729.272 367.939, 729.036 368.529, 729.079 369.583 M 268.638 377.500 C 268.955 378.325, 269.391 379, 269.607 379 C 269.823 379, 270 378.325, 270 377.500 C 270 376.675, 269.564 376, 269.031 376 C 268.499 376, 268.322 376.675, 268.638 377.500 M 421 386.895 C 421 387.468, 421.720 387.661, 422.600 387.323 C 423.480 386.986, 422.972 387.937, 421.471 389.438 C 419.951 390.958, 418.004 391.973, 417.073 391.729 C 415.979 391.443, 415.355 391.940, 415.262 393.173 C 415.134 394.867, 415.635 394.988, 420.310 394.393 C 423.165 394.031, 425.950 393.433, 426.500 393.065 C 427.050 392.697, 429.075 392.262, 431 392.098 C 432.925 391.934, 434.813 391.295, 435.196 390.679 C 436.219 389.030, 435.263 388.536, 433.646 389.879 C 432.533 390.803, 432.136 390.627, 431.716 389.021 C 431.357 387.648, 430.355 387, 428.594 387 C 427.167 387, 426 387.498, 426 388.107 C 426 388.716, 426.698 388.946, 427.552 388.618 C 428.442 388.277, 428.843 388.445, 428.493 389.011 C 427.444 390.709, 424.211 390.143, 424.361 388.288 C 424.438 387.347, 423.712 386.414, 422.750 386.215 C 421.788 386.016, 421 386.322, 421 386.895 M 410.500 393 C 410.840 393.550, 411.316 394, 411.559 394 C 411.802 394, 412 393.550, 412 393 C 412 392.450, 411.523 392, 410.941 392 C 410.359 392, 410.160 392.450, 410.500 393 M 97.447 434 C 97.672 435.375, 98.172 438.683, 98.557 441.351 C 98.958 444.126, 99.576 445.686, 100.002 444.996 C 100.412 444.333, 100.377 442.600, 99.924 441.145 C 99.471 439.690, 98.637 436.925, 98.069 435 C 97.502 433.075, 97.222 432.625, 97.447 434 M 733.079 435.583 C 733.127 436.748, 733.364 436.985, 733.683 436.188 C 733.972 435.466, 733.936 434.603, 733.604 434.271 C 733.272 433.939, 733.036 434.529, 733.079 435.583 M 731.673 440.883 C 731.356 442.469, 730.822 445.057, 730.485 446.633 C 730.055 448.652, 730.155 449.056, 730.824 448 C 731.873 446.344, 733.449 438, 732.713 438 C 732.458 438, 731.990 439.298, 731.673 440.883 M 100.564 447.707 C 100.022 449.132, 100.136 449.247, 101.124 448.267 C 101.808 447.588, 102.115 446.781, 101.807 446.474 C 101.499 446.166, 100.940 446.721, 100.564 447.707 M 101.626 453.140 C 100.851 454.822, 107.378 484.224, 109.142 487 C 109.890 488.176, 109.988 488.068, 109.597 486.500 C 105.774 471.165, 103.150 459.014, 102.688 454.500 C 102.458 452.250, 102.192 451.910, 101.626 453.140 M 728.829 453.750 C 728.484 457.282, 728.286 458.552, 727.700 461 C 724.097 476.054, 721.946 486.279, 722.306 486.639 C 722.893 487.226, 729.785 458.256, 729.893 454.750 C 729.985 451.747, 729.106 450.921, 728.829 453.750 M 407.244 521.448 C 404.379 523.859, 404.315 524.137, 402.992 540.098 L 401.648 556.301 404.380 558.650 C 406.664 560.615, 408.208 560.997, 413.806 560.985 C 420.832 560.969, 421.438 560.763, 424.238 557.435 C 425.867 555.499, 425.883 554.403, 424.491 539.935 C 423.674 531.446, 423.005 524.156, 423.003 523.735 C 422.997 522.219, 416.430 519.007, 413.327 519.004 C 411.415 519.001, 408.997 519.973, 407.244 521.448 M 397.127 607.900 C 396.225 608.472, 394.776 615.413, 392.903 628.135 C 391.335 638.786, 390.040 648.011, 390.026 648.636 C 389.979 650.673, 397.395 657.015, 400.991 658.014 C 402.921 658.550, 409.157 658.991, 414.849 658.994 C 426.421 659.001, 429.758 657.947, 434.737 652.711 L 437.791 649.500 434.890 629.500 C 432.683 614.285, 431.585 609.201, 430.303 608.250 C 428.331 606.788, 399.366 606.482, 397.127 607.900" stroke="none" fill="black" fill-rule="evenodd"/>
</svg>